<svg xmlns="http://www.w3.org/2000/svg" viewBox="0 0 424.88 40.45" width="425" height="40"><defs><title>Coquelicot</title></defs><path d="M23.67,39.41c-7.48,0-12.9-6.26-12.9-13.91v-.11c0-7.65,5.42-13.8,12.9-13.8,4.47,0,7.83,2,10.95,4.86L39,11.37A20.36,20.36,0,0,0,23.73,5.28c-11.84,0-20.17,9.1-20.17,20.22v.11c0,11.23,8.49,20.12,19.89,20.12,7.32,0,11.79-2.68,15.87-6.93L34.9,34.33C31.55,37.46,28.48,39.41,23.67,39.41Z" transform="translate(-3.56 -5.28)"/><path d="M69.5,5.28A20,20,0,0,0,49,25.5v.11c0,11,8.38,20.12,20.39,20.12A20,20,0,0,0,89.89,25.5v-.11C89.89,14.38,81.51,5.28,69.5,5.28ZM82.69,25.61c0,7.6-5.42,13.8-13.19,13.8S56.2,33.1,56.2,25.5v-.11c0-7.6,5.42-13.8,13.19-13.8s13.3,6.31,13.3,13.91Z" transform="translate(-3.56 -5.28)"/><path d="M320.26,39.41c-7.49,0-12.91-6.25-12.91-13.9v-.12c0-7.65,5.42-13.8,12.91-13.8,4.47,0,7.82,2,10.95,4.86l4.41-5.08a20.4,20.4,0,0,0-15.31-6.09c-11.84,0-20.16,9.1-20.16,20.23v.1c0,11.23,8.49,20.12,19.88,20.12,7.32,0,11.79-2.68,15.87-6.93l-4.41-4.47C328.14,37.46,325.06,39.41,320.26,39.41Z" transform="translate(-3.56 -5.28)"/><path d="M366.08,5.28a20,20,0,0,0-20.5,20.23v.1c0,11,8.38,20.12,20.39,20.12a20,20,0,0,0,20.51-20.22v-.12C386.48,14.38,378.1,5.28,366.08,5.28Zm13.19,20.33c0,7.6-5.42,13.8-13.19,13.8s-13.29-6.31-13.29-13.9v-.12c0-7.6,5.42-13.8,13.18-13.8s13.3,6.32,13.3,13.92Z" transform="translate(-3.56 -5.28)"/><polygon points="202.97 23.13 222.58 23.13 222.58 16.99 202.97 16.99 202.97 6.82 225.09 6.82 225.09 0.67 196.1 0.67 196.1 39.78 225.37 39.78 225.37 33.64 202.97 33.64 202.97 23.13"/><polygon points="393.14 0.67 393.14 7.04 405.55 7.04 405.55 39.78 412.47 39.78 412.47 7.04 424.88 7.04 424.88 0.67 393.14 0.67"/><path d="M178.56,28.46c0,7.21-3.74,10.9-9.83,10.9s-9.89-3.91-9.89-11.17V6H152V28.46c0,11.35,6.49,17.21,16.65,17.21s16.82-5.86,16.82-17.54V6h-6.87Z" transform="translate(-3.56 -5.28)"/><polygon points="246.51 0.67 239.64 0.67 239.64 39.78 267.07 39.78 267.07 33.52 246.51 33.52 246.51 0.67"/><polygon points="278.02 6.69 278.02 7.54 278.02 39.78 284.89 39.78 284.89 7.54 284.89 6.69 284.89 0.67 278.02 0.67 278.02 6.69"/><path d="M138.47,32.88a20.58,20.58,0,0,0,1.37-7.38v-.11c0-11-8.38-20.11-20.39-20.11A20,20,0,0,0,98.94,25.5v.11c0,11,8.39,20.12,20.4,20.12A20.29,20.29,0,0,0,135,38.78a13.09,13.09,0,0,1,1.58,5.56c0,.16,0,.45,0,.73H143c0-.48,0-1,0-1.35A18,18,0,0,0,138.47,32.88Zm-32.32-7.49c0-7.6,5.42-13.8,13.19-13.8s13.29,6.31,13.29,13.91v.11a15.23,15.23,0,0,1-.27,2.89,19.25,19.25,0,0,0-7.68-1.56,18.17,18.17,0,0,0-15.27,7.8,14.36,14.36,0,0,1-3.26-9.24Zm13.3,14a13.21,13.21,0,0,1-5-1,11.4,11.4,0,0,1,10.1-5.82A11.72,11.72,0,0,1,130.07,34,12.73,12.73,0,0,1,119.45,39.41Z" transform="translate(-3.56 -5.28)"/></svg>