<svg xmlns="http://www.w3.org/2000/svg" viewBox="0 0 44.14 40.46" height="70" width="77">
  <defs>
    <title>Coquelicot logo of a poppy in line art</title>
  </defs>
  <path d="M43.58,15.46c-1.98-4.72-7.57-4.99-9.2-4.96-.24-4.08-2.86-7.95-6.6-9.6-3.81-1.68-8.52-.96-11.69,1.72-.93-.88-2.22-1.35-3.5-1.24-1.52,.12-2.68,.83-3.35,2.05-.54,.98-.71,2.16-.63,3.32-3.12,.4-5.37,1.63-7.08,3.87C-.12,12.78-.46,15.83,.64,18.4c1.01,2.35,2.92,4.12,5.53,5.12,1.61,.62,3.48,.93,5.39,.93,1.24,0,2.49-.13,3.7-.38,.46,.84,2.15,3.52,5.13,4.25,.89,3.32-.22,6.82-2.9,9.01-.14,.11-.29,.22-.43,.33-.59,.43-1.24,.8-1.96,1.09-.39,.16-.8,.28-1.21,.36-2.53,.51-4.96-.03-6.88-1.38-.26-.18-.61-.14-.8,.11h0c-.19,.26-.15,.64,.11,.82,1.37,.96,2.96,1.57,4.67,1.75,.34,.04,.69,.05,1.03,.05,2.26,0,4.44-.77,6.21-2.22,.02-.02,.05-.04,.07-.06,.21-.16,.42-.31,.62-.47,4.86-3.7,9.07-6.89,13.08-5.09,0,0,0,.02-.01,.02-.47,1.07-.43,3.02,1.62,4.01,.73,.35,1.52,.47,2.25,.47,.83,0,1.59-.15,2.1-.29h0l.15-.04c.47-.14,.85-.47,1.04-.92,.19-.45,.17-.96-.06-1.39-1.02-1.92-1.94-3.09-2.74-3.48-1.25-.61-2.71-.3-3.67,.64-3.86-1.89-7.61,.1-11.73,3.08,.89-1.91,1.15-4.08,.69-6.21,.24,.02,.47,.03,.7,.03,2.94,0,4.92-1.4,5.01-1.47h0c1.79,.45,3.51,.68,5.13,.68,2.53,0,4.83-.56,6.8-1.68,4.02-2.28,5.86-6.84,4.28-10.6Zm-10.56,17.68l.06-.09c.37-.76,1.12-1.2,1.89-1.2,.29,0,.59,.06,.86,.2,.26,.13,1,.67,2.22,2.98,.06,.12,.07,.26,.02,.39-.05,.13-.16,.22-.34,.27l-.09,.02c-.8,.22-2.32,.49-3.54-.1-1.77-.86-1.09-2.43-1.08-2.47ZM10.31,4.03c.47-.85,1.27-1.33,2.37-1.42,.08,0,.16,0,.25,0,1,0,2.01,.48,2.63,1.27,.11,.14,.27,.22,.44,.24,.17,.01,.35-.05,.47-.17,2.81-2.69,7.25-3.47,10.8-1.9,3.55,1.57,5.97,5.37,5.89,9.26,0,.31,.21,.57,.51,.62,1.44,.25,2.7,.8,3.62,1.59,1.03,.88,1.68,2.11,1.74,3.3,.09,1.84-1.24,3.76-3.22,4.66-1.66,.76-3.72,.91-6.27,.48-5.06-.86-10.16-3.53-15.15-7.95-1.34-1.19-2.84-2.64-3.75-4.39-.82-1.58-1.2-4-.33-5.57Zm10.85,23.19c-2.49-.37-4.06-2.51-4.66-3.47,.63-.18,1.24-.4,1.82-.66,2.32,1.43,4.78,2.62,7.18,3.42,.07,.02,.13,.04,.19,.06-.95,.43-2.58,.94-4.54,.65Zm17.52-2.23c-7.56,4.29-18.7-1.43-24.34-6.33-.38-.33-.8-.73-1.24-1.14-1.95-1.84-4.38-4.13-6.75-3.89-1.09,.11-2.04,.74-2.83,1.87-.2,.28-.13,.67,.15,.86,.28,.2,.67,.13,.86-.15,.58-.84,1.22-1.28,1.95-1.35,1.81-.19,4.01,1.89,5.78,3.56,.45,.43,.88,.83,1.28,1.18,1.09,.95,2.28,1.84,3.52,2.67-3.32,1.22-7.38,1.28-10.45,.1-2.32-.89-3.95-2.39-4.84-4.46-.93-2.16-.64-4.73,.73-6.55,1.51-1.99,3.46-3.04,6.26-3.4,.17,.81,.44,1.57,.77,2.2,1.01,1.93,2.6,3.49,4.03,4.75,5.17,4.57,10.47,7.34,15.76,8.24,1.01,.17,1.94,.26,2.82,.26,1.57,0,2.95-.27,4.17-.83,2.44-1.11,4.06-3.51,3.95-5.84-.08-1.55-.87-3.07-2.17-4.18-.19-.16-.4-.31-.62-.46,1.87,.46,3.99,1.51,4.96,3.84,1.33,3.19-.28,7.08-3.75,9.05Z"/><path d="M26.44,18.37c.09,0,.18,0,.26,0,1.01,0,1.9-.31,2.53-.9,.27-.25,.49-.52,.66-.81h0c1.25-2.18-1.06-4.23-2.04-5.11-1.27-1.13-2.79-2.04-4.38-2.61-3.47-1.25-5.73-.97-6.7,.83-.76,1.4-.23,3.08,1.49,4.74,1.87,1.8,5.13,3.69,8.19,3.85Zm-8.59-8c.38-.69,1.12-.94,2.01-.94,1,0,2.17,.32,3.19,.69,1.44,.52,2.82,1.34,3.98,2.37,1.32,1.18,2.45,2.42,1.79,3.57-.1,.18-.24,.35-.42,.52-.43,.4-1.12,.6-1.89,.56-2.74-.14-5.69-1.86-7.4-3.5-.74-.71-1.89-2.09-1.26-3.26Z"/>
      </svg>