<svg xmlns="http://www.w3.org/2000/svg" viewBox="0 0 278.3 274.67" height="274" width="278">
  <defs>
    <title>Coquelicot watermark</title>
  </defs>
  <path d="M121.54,31.46c-2.61,4.87-5.32,8.25-10.74,10.09-8.25,2.81-16.76-1.81-19.79-10.73l-.04-.13c-3.01-8.85,.95-17.63,9.2-20.44,4.46-1.51,8.85-1.11,14.26,1.31l.59,.26,3.6-8.84-.54-.25c-4.99-2.31-11.36-4.25-20.75-1.06-6.75,2.29-12.06,6.92-14.96,13.03-2.83,5.96-3.17,12.85-.95,19.37l.05,.14c2.22,6.54,6.69,11.78,12.59,14.76,3.44,1.74,7.2,2.62,11.03,2.62,2.79,0,5.61-.47,8.38-1.41,9.7-3.29,13.6-9.28,16.14-14.71l.26-.55-8.01-4.01-.29,.54Z"/><path d="M172.24,51.42c11.06,0,21.01-7.01,24.38-18.14l.04-.13c4.19-13.87-3.25-27.54-17.31-31.79-13.9-4.2-28.05,3.25-32.19,16.98l-.04,.12c-4.19,13.87,3.25,27.54,17.31,31.79,2.62,.79,5.25,1.17,7.82,1.17Zm-15.39-30.16l.04-.13c2.21-7.32,8.28-11.86,15.09-11.86,1.51,0,3.06,.22,4.61,.69,8.61,2.6,13.04,11.37,10.31,20.38l-.04,.13c-1.29,4.26-3.96,7.75-7.54,9.83-3.65,2.13-7.97,2.6-12.16,1.33-4.2-1.27-7.55-4.09-9.44-7.93-1.85-3.77-2.16-8.19-.88-12.45Z"/><polygon points="201 201.86 208.27 206.87 223.95 184.13 233.58 190.78 219.85 210.68 227.12 215.69 240.85 195.79 250.13 202.2 234.64 224.65 241.91 229.66 262.92 199.21 222.21 171.12 201 201.86"/><polygon points="158.82 223.99 162.6 232.12 185.58 221.44 202.64 258.17 211.46 254.07 190.62 209.22 158.82 223.99"/><path d="M96.74,212.74c-7.3-3.62-13.83-3.94-21.81-1.06l-.57,.21,2.81,8.51,.58-.17c5.29-1.58,9.6-2.05,14.74,.49,7.81,3.87,10.54,13.16,6.36,21.6l-.06,.12c-1.98,4-5.19,7.01-9.04,8.5-3.9,1.5-8.13,1.29-11.94-.6-4.22-2.09-7.03-5.49-9.13-11.03l-.23-.6-8.81,3.68,.2,.56c1.88,5.17,5,11.05,13.89,15.46,3.84,1.9,7.83,2.81,11.7,2.81,9.27,0,17.93-5.19,22.49-14.41l.06-.12c3.06-6.19,3.63-13.05,1.58-19.34-2.07-6.35-6.62-11.53-12.83-14.61Z"/><path d="M60.78,176.51c-6.84-12.81-22.1-17.56-34.74-10.82l-.13,.07c-12.79,6.83-17.21,21.75-10.29,34.7,4.74,8.87,13.51,13.88,22.66,13.88,4.06,0,8.2-.99,12.09-3.07l.12-.06c12.79-6.82,17.21-21.74,10.29-34.7Zm-6.99,16.42c-1.36,3.97-4.27,7.31-8.2,9.41l-.12,.07c-3.92,2.1-8.29,2.66-12.29,1.61-4.08-1.08-7.47-3.81-9.53-7.68-2.07-3.87-2.44-8.23-1.05-12.29,1.36-3.97,4.28-7.31,8.19-9.4l.13-.07c2.63-1.41,5.47-2.13,8.25-2.13,1.36,0,2.72,.17,4.03,.52,4.08,1.08,7.47,3.81,9.53,7.68,2.07,3.87,2.44,8.23,1.05,12.29Z"/><path d="M224.99,88.36c-.9,1.87-2.12,3.49-3.62,4.82-.15,.13-.41,.35-.67,.56l-.48,.39,5.73,7.28,.49-.4c.47-.38,1-.82,1.3-1.09,3.7-3.36,6.14-7.72,7.09-12.65,2.99-.97,5.72-2.41,8.12-4.31l.11-.09c5.39-4.24,8.81-10.2,9.64-16.77,.85-6.74-1.14-13.58-5.61-19.25-4.47-5.67-10.68-9.21-17.5-9.97-6.64-.74-13.27,1.19-18.66,5.44l-.1,.08c-11.4,8.98-13.13,24.46-4.03,36.02,4.61,5.85,11.04,9.35,18.19,9.93Zm-1.48-14.86c1.22,1.55,2.09,3.34,2.57,5.31-4.81,.02-9.05-2.03-12.08-5.87-1.08-1.37-1.92-2.92-2.5-4.62,4.7-.45,9.04,1.42,12.01,5.18Zm-12.31-14.09c.93-3.56,3.05-6.77,6.02-9.11l.11-.09c7.35-5.79,17.05-4.87,22.58,2.14,2.72,3.45,3.85,7.69,3.2,11.93-.64,4.16-2.93,7.96-6.43,10.72l-.1,.08c-.69,.55-1.45,1.06-2.27,1.52-.88-2.95-2.3-5.68-4.22-8.11-4.59-5.82-11.17-9.08-18.24-9.08-.21,0-.43,0-.64,0Z"/><polygon points="50.13 129.44 9.21 129.44 9.21 113.94 0 113.94 0 154.85 9.21 154.85 9.21 139.35 50.13 139.35 50.13 129.44"/><path d="M249.89,122.7h28.42v-9.84h-28.76c-14.06,0-22.13,7.81-22.13,21.43s8.22,21.64,22.55,21.64h28.34v-9.84h-28.76c-8.38,0-12.99-4.14-12.99-11.66s4.86-11.73,13.34-11.73Z"/><rect x="134.08" y="224.55" width="9.84" height="50.13"/></svg>