<?xml version="1.0" encoding="UTF-8"?>
<svg xmlns="http://www.w3.org/2000/svg" xmlns:xlink="http://www.w3.org/1999/xlink" width="0" height="0">
<symbol id="coquelicot-icon" viewBox="0 0 44.14 40.46" height="70" width="77">
  <defs>
    <title>Coquelicot logo of a poppy in line art</title>
  </defs>
  <path d="M43.58,15.46c-1.98-4.72-7.57-4.99-9.2-4.96-.24-4.08-2.86-7.95-6.6-9.6-3.81-1.68-8.52-.96-11.69,1.72-.93-.88-2.22-1.35-3.5-1.24-1.52,.12-2.68,.83-3.35,2.05-.54,.98-.71,2.16-.63,3.32-3.12,.4-5.37,1.63-7.08,3.87C-.12,12.78-.46,15.83,.64,18.4c1.01,2.35,2.92,4.12,5.53,5.12,1.61,.62,3.48,.93,5.39,.93,1.24,0,2.49-.13,3.7-.38,.46,.84,2.15,3.52,5.13,4.25,.89,3.32-.22,6.82-2.9,9.01-.14,.11-.29,.22-.43,.33-.59,.43-1.24,.8-1.96,1.09-.39,.16-.8,.28-1.21,.36-2.53,.51-4.96-.03-6.88-1.38-.26-.18-.61-.14-.8,.11h0c-.19,.26-.15,.64,.11,.82,1.37,.96,2.96,1.57,4.67,1.75,.34,.04,.69,.05,1.03,.05,2.26,0,4.44-.77,6.21-2.22,.02-.02,.05-.04,.07-.06,.21-.16,.42-.31,.62-.47,4.86-3.7,9.07-6.89,13.08-5.09,0,0,0,.02-.01,.02-.47,1.07-.43,3.02,1.62,4.01,.73,.35,1.52,.47,2.25,.47,.83,0,1.59-.15,2.1-.29h0l.15-.04c.47-.14,.85-.47,1.04-.92,.19-.45,.17-.96-.06-1.39-1.02-1.92-1.94-3.09-2.74-3.48-1.25-.61-2.71-.3-3.67,.64-3.86-1.89-7.61,.1-11.73,3.08,.89-1.91,1.15-4.08,.69-6.21,.24,.02,.47,.03,.7,.03,2.94,0,4.92-1.4,5.01-1.47h0c1.79,.45,3.51,.68,5.13,.68,2.53,0,4.83-.56,6.8-1.68,4.02-2.28,5.86-6.84,4.28-10.6Zm-10.56,17.68l.06-.09c.37-.76,1.12-1.2,1.89-1.2,.29,0,.59,.06,.86,.2,.26,.13,1,.67,2.22,2.98,.06,.12,.07,.26,.02,.39-.05,.13-.16,.22-.34,.27l-.09,.02c-.8,.22-2.32,.49-3.54-.1-1.77-.86-1.09-2.43-1.08-2.47ZM10.31,4.03c.47-.85,1.27-1.33,2.37-1.42,.08,0,.16,0,.25,0,1,0,2.01,.48,2.63,1.27,.11,.14,.27,.22,.44,.24,.17,.01,.35-.05,.47-.17,2.81-2.69,7.25-3.47,10.8-1.9,3.55,1.57,5.97,5.37,5.89,9.26,0,.31,.21,.57,.51,.62,1.44,.25,2.7,.8,3.62,1.59,1.03,.88,1.68,2.11,1.74,3.3,.09,1.84-1.24,3.76-3.22,4.66-1.66,.76-3.72,.91-6.27,.48-5.06-.86-10.16-3.53-15.15-7.95-1.34-1.19-2.84-2.64-3.75-4.39-.82-1.58-1.2-4-.33-5.57Zm10.85,23.19c-2.49-.37-4.06-2.51-4.66-3.47,.63-.18,1.24-.4,1.82-.66,2.32,1.43,4.78,2.62,7.18,3.42,.07,.02,.13,.04,.19,.06-.95,.43-2.58,.94-4.54,.65Zm17.52-2.23c-7.56,4.29-18.7-1.43-24.34-6.33-.38-.33-.8-.73-1.24-1.14-1.95-1.84-4.38-4.13-6.75-3.89-1.09,.11-2.04,.74-2.83,1.87-.2,.28-.13,.67,.15,.86,.28,.2,.67,.13,.86-.15,.58-.84,1.22-1.28,1.95-1.35,1.81-.19,4.01,1.89,5.78,3.56,.45,.43,.88,.83,1.28,1.18,1.09,.95,2.28,1.84,3.52,2.67-3.32,1.22-7.38,1.28-10.45,.1-2.32-.89-3.95-2.39-4.84-4.46-.93-2.16-.64-4.73,.73-6.55,1.51-1.99,3.46-3.04,6.26-3.4,.17,.81,.44,1.57,.77,2.2,1.01,1.93,2.6,3.49,4.03,4.75,5.17,4.57,10.47,7.34,15.76,8.24,1.01,.17,1.94,.26,2.82,.26,1.57,0,2.95-.27,4.17-.83,2.44-1.11,4.06-3.51,3.95-5.84-.08-1.55-.87-3.07-2.17-4.18-.19-.16-.4-.31-.62-.46,1.87,.46,3.99,1.51,4.96,3.84,1.33,3.19-.28,7.08-3.75,9.05Z"/><path d="M26.44,18.37c.09,0,.18,0,.26,0,1.01,0,1.9-.31,2.53-.9,.27-.25,.49-.52,.66-.81h0c1.25-2.18-1.06-4.23-2.04-5.11-1.27-1.13-2.79-2.04-4.38-2.61-3.47-1.25-5.73-.97-6.7,.83-.76,1.4-.23,3.08,1.49,4.74,1.87,1.8,5.13,3.69,8.19,3.85Zm-8.59-8c.38-.69,1.12-.94,2.01-.94,1,0,2.17,.32,3.19,.69,1.44,.52,2.82,1.34,3.98,2.37,1.32,1.18,2.45,2.42,1.79,3.57-.1,.18-.24,.35-.42,.52-.43,.4-1.12,.6-1.89,.56-2.74-.14-5.69-1.86-7.4-3.5-.74-.71-1.89-2.09-1.26-3.26Z"/>
      </symbol>
<symbol id="coquelicot-watermark" viewBox="0 0 278.3 274.67" height="274" width="278">
  <defs>
    <title>Coquelicot watermark</title>
  </defs>
  <path d="M121.54,31.46c-2.61,4.87-5.32,8.25-10.74,10.09-8.25,2.81-16.76-1.81-19.79-10.73l-.04-.13c-3.01-8.85,.95-17.63,9.2-20.44,4.46-1.51,8.85-1.11,14.26,1.31l.59,.26,3.6-8.84-.54-.25c-4.99-2.31-11.36-4.25-20.75-1.06-6.75,2.29-12.06,6.92-14.96,13.03-2.83,5.96-3.17,12.85-.95,19.37l.05,.14c2.22,6.54,6.69,11.78,12.59,14.76,3.44,1.74,7.2,2.62,11.03,2.62,2.79,0,5.61-.47,8.38-1.41,9.7-3.29,13.6-9.28,16.14-14.71l.26-.55-8.01-4.01-.29,.54Z"/><path d="M172.24,51.42c11.06,0,21.01-7.01,24.38-18.14l.04-.13c4.19-13.87-3.25-27.54-17.31-31.79-13.9-4.2-28.05,3.25-32.19,16.98l-.04,.12c-4.19,13.87,3.25,27.54,17.31,31.79,2.62,.79,5.25,1.17,7.82,1.17Zm-15.39-30.16l.04-.13c2.21-7.32,8.28-11.86,15.09-11.86,1.51,0,3.06,.22,4.61,.69,8.61,2.6,13.04,11.37,10.31,20.38l-.04,.13c-1.29,4.26-3.96,7.75-7.54,9.83-3.65,2.13-7.97,2.6-12.16,1.33-4.2-1.27-7.55-4.09-9.44-7.93-1.85-3.77-2.16-8.19-.88-12.45Z"/><polygon points="201 201.86 208.27 206.87 223.95 184.13 233.58 190.78 219.85 210.68 227.12 215.69 240.85 195.79 250.13 202.2 234.64 224.65 241.91 229.66 262.92 199.21 222.21 171.12 201 201.86"/><polygon points="158.82 223.99 162.6 232.12 185.58 221.44 202.64 258.17 211.46 254.07 190.62 209.22 158.82 223.99"/><path d="M96.74,212.74c-7.3-3.62-13.83-3.94-21.81-1.06l-.57,.21,2.81,8.51,.58-.17c5.29-1.58,9.6-2.05,14.74,.49,7.81,3.87,10.54,13.16,6.36,21.6l-.06,.12c-1.98,4-5.19,7.01-9.04,8.5-3.9,1.5-8.13,1.29-11.94-.6-4.22-2.09-7.03-5.49-9.13-11.03l-.23-.6-8.81,3.68,.2,.56c1.88,5.17,5,11.05,13.89,15.46,3.84,1.9,7.83,2.81,11.7,2.81,9.27,0,17.93-5.19,22.49-14.41l.06-.12c3.06-6.19,3.63-13.05,1.58-19.34-2.07-6.35-6.62-11.53-12.83-14.61Z"/><path d="M60.78,176.51c-6.84-12.81-22.1-17.56-34.74-10.82l-.13,.07c-12.79,6.83-17.21,21.75-10.29,34.7,4.74,8.87,13.51,13.88,22.66,13.88,4.06,0,8.2-.99,12.09-3.07l.12-.06c12.79-6.82,17.21-21.74,10.29-34.7Zm-6.99,16.42c-1.36,3.97-4.27,7.31-8.2,9.41l-.12,.07c-3.92,2.1-8.29,2.66-12.29,1.61-4.08-1.08-7.47-3.81-9.53-7.68-2.07-3.87-2.44-8.23-1.05-12.29,1.36-3.97,4.28-7.31,8.19-9.4l.13-.07c2.63-1.41,5.47-2.13,8.25-2.13,1.36,0,2.72,.17,4.03,.52,4.08,1.08,7.47,3.81,9.53,7.68,2.07,3.87,2.44,8.23,1.05,12.29Z"/><path d="M224.99,88.36c-.9,1.87-2.12,3.49-3.62,4.82-.15,.13-.41,.35-.67,.56l-.48,.39,5.73,7.28,.49-.4c.47-.38,1-.82,1.3-1.09,3.7-3.36,6.14-7.72,7.09-12.65,2.99-.97,5.72-2.41,8.12-4.31l.11-.09c5.39-4.24,8.81-10.2,9.64-16.77,.85-6.74-1.14-13.58-5.61-19.25-4.47-5.67-10.68-9.21-17.5-9.97-6.64-.74-13.27,1.19-18.66,5.44l-.1,.08c-11.4,8.98-13.13,24.46-4.03,36.02,4.61,5.85,11.04,9.35,18.19,9.93Zm-1.48-14.86c1.22,1.55,2.09,3.34,2.57,5.31-4.81,.02-9.05-2.03-12.08-5.87-1.08-1.37-1.92-2.92-2.5-4.62,4.7-.45,9.04,1.42,12.01,5.18Zm-12.31-14.09c.93-3.56,3.05-6.77,6.02-9.11l.11-.09c7.35-5.79,17.05-4.87,22.58,2.14,2.72,3.45,3.85,7.69,3.2,11.93-.64,4.16-2.93,7.96-6.43,10.72l-.1,.08c-.69,.55-1.45,1.06-2.27,1.52-.88-2.95-2.3-5.68-4.22-8.11-4.59-5.82-11.17-9.08-18.24-9.08-.21,0-.43,0-.64,0Z"/><polygon points="50.13 129.44 9.21 129.44 9.21 113.94 0 113.94 0 154.85 9.21 154.85 9.21 139.35 50.13 139.35 50.13 129.44"/><path d="M249.89,122.7h28.42v-9.84h-28.76c-14.06,0-22.13,7.81-22.13,21.43s8.22,21.64,22.55,21.64h28.34v-9.84h-28.76c-8.38,0-12.99-4.14-12.99-11.66s4.86-11.73,13.34-11.73Z"/><rect x="134.08" y="224.55" width="9.84" height="50.13"/></symbol>
<symbol id="coquelicot-wordmark" viewBox="0 0 424.88 40.45" width="425" height="40"><defs><title>Coquelicot</title></defs><path d="M23.67,39.41c-7.48,0-12.9-6.26-12.9-13.91v-.11c0-7.65,5.42-13.8,12.9-13.8,4.47,0,7.83,2,10.95,4.86L39,11.37A20.36,20.36,0,0,0,23.73,5.28c-11.84,0-20.17,9.1-20.17,20.22v.11c0,11.23,8.49,20.12,19.89,20.12,7.32,0,11.79-2.68,15.87-6.93L34.9,34.33C31.55,37.46,28.48,39.41,23.67,39.41Z" transform="translate(-3.56 -5.28)"/><path d="M69.5,5.28A20,20,0,0,0,49,25.5v.11c0,11,8.38,20.12,20.39,20.12A20,20,0,0,0,89.89,25.5v-.11C89.89,14.38,81.51,5.28,69.5,5.28ZM82.69,25.61c0,7.6-5.42,13.8-13.19,13.8S56.2,33.1,56.2,25.5v-.11c0-7.6,5.42-13.8,13.19-13.8s13.3,6.31,13.3,13.91Z" transform="translate(-3.56 -5.28)"/><path d="M320.26,39.41c-7.49,0-12.91-6.25-12.91-13.9v-.12c0-7.65,5.42-13.8,12.91-13.8,4.47,0,7.82,2,10.95,4.86l4.41-5.08a20.4,20.4,0,0,0-15.31-6.09c-11.84,0-20.16,9.1-20.16,20.23v.1c0,11.23,8.49,20.12,19.88,20.12,7.32,0,11.79-2.68,15.87-6.93l-4.41-4.47C328.14,37.46,325.06,39.41,320.26,39.41Z" transform="translate(-3.56 -5.28)"/><path d="M366.08,5.28a20,20,0,0,0-20.5,20.23v.1c0,11,8.38,20.12,20.39,20.12a20,20,0,0,0,20.51-20.22v-.12C386.48,14.38,378.1,5.28,366.08,5.28Zm13.19,20.33c0,7.6-5.42,13.8-13.19,13.8s-13.29-6.31-13.29-13.9v-.12c0-7.6,5.42-13.8,13.18-13.8s13.3,6.32,13.3,13.92Z" transform="translate(-3.56 -5.28)"/><polygon points="202.97 23.13 222.58 23.13 222.58 16.99 202.97 16.99 202.97 6.82 225.09 6.82 225.09 0.67 196.1 0.67 196.1 39.78 225.37 39.78 225.37 33.64 202.97 33.64 202.97 23.13"/><polygon points="393.14 0.67 393.14 7.04 405.55 7.04 405.55 39.78 412.47 39.78 412.47 7.04 424.88 7.04 424.88 0.67 393.14 0.67"/><path d="M178.56,28.46c0,7.21-3.74,10.9-9.83,10.9s-9.89-3.91-9.89-11.17V6H152V28.46c0,11.35,6.49,17.21,16.65,17.21s16.82-5.86,16.82-17.54V6h-6.87Z" transform="translate(-3.56 -5.28)"/><polygon points="246.51 0.67 239.64 0.67 239.64 39.78 267.07 39.78 267.07 33.52 246.51 33.52 246.51 0.67"/><polygon points="278.02 6.69 278.02 7.54 278.02 39.78 284.89 39.78 284.89 7.54 284.89 6.69 284.89 0.67 278.02 0.67 278.02 6.69"/><path d="M138.47,32.88a20.58,20.58,0,0,0,1.37-7.38v-.11c0-11-8.38-20.11-20.39-20.11A20,20,0,0,0,98.94,25.5v.11c0,11,8.39,20.12,20.4,20.12A20.29,20.29,0,0,0,135,38.78a13.09,13.09,0,0,1,1.58,5.56c0,.16,0,.45,0,.73H143c0-.48,0-1,0-1.35A18,18,0,0,0,138.47,32.88Zm-32.32-7.49c0-7.6,5.42-13.8,13.19-13.8s13.29,6.31,13.29,13.91v.11a15.23,15.23,0,0,1-.27,2.89,19.25,19.25,0,0,0-7.68-1.56,18.17,18.17,0,0,0-15.27,7.8,14.36,14.36,0,0,1-3.26-9.24Zm13.3,14a13.21,13.21,0,0,1-5-1,11.4,11.4,0,0,1,10.1-5.82A11.72,11.72,0,0,1,130.07,34,12.73,12.73,0,0,1,119.45,39.41Z" transform="translate(-3.56 -5.28)"/></symbol>
<symbol id="twitter"
   
    width="32" 
    height="32" 
    viewBox="0 0 32 32">
    <title>twitter</title>
    <path d="M32 7.075c-1.175 0.525-2.444 0.875-3.769 1.031 1.356-0.813 2.394-2.1 2.887-3.631-1.269 0.75-2.675 1.3-4.169 1.594-1.2-1.275-2.906-2.069-4.794-2.069-3.625 0-6.563 2.938-6.563 6.563 0 0.512 0.056 1.012 0.169 1.494-5.456-0.275-10.294-2.888-13.531-6.862-0.563 0.969-0.887 2.1-0.887 3.3 0 2.275 1.156 4.287 2.919 5.463-1.075-0.031-2.087-0.331-2.975-0.819 0 0.025 0 0.056 0 0.081 0 3.181 2.263 5.838 5.269 6.437-0.55 0.15-1.131 0.231-1.731 0.231-0.425 0-0.831-0.044-1.237-0.119 0.838 2.606 3.263 4.506 6.131 4.563-2.25 1.762-5.075 2.813-8.156 2.813-0.531 0-1.050-0.031-1.569-0.094 2.913 1.869 6.362 2.95 10.069 2.95 12.075 0 18.681-10.006 18.681-18.681 0-0.287-0.006-0.569-0.019-0.85 1.281-0.919 2.394-2.075 3.275-3.394z"></path>
</symbol>

</svg>
